# xmcd
#
# Track frame offsets:
#	150
#	15447
#	30500
#	45570
#	63310
#	78302
#	95927
#	112482
#	130102
#	144425
#	154577
#	165880
#	181475
#	197972
#	213070
#	221995
#	234062
#	248012
#	265455
#	278265
#
# Disc length: 3907 seconds
#
# Revision: 0
# Processed by: cddbd v1.5.2PL0 Copyright (c) Steve Scherf et al.
# Submitted via: audiograbber 1.83.01
#
DISCID=0f0f4114
DTITLE=Mauno Kuusisto - Mauno Kuusisto Ja Georg Ots [CD1)
DYEAR=2003
DGENRE=Oldies
TTITLE0=Kertokaa Se Hänelle
TTITLE1=Valaistu Ikkuna
TTITLE2=Miksi?
TTITLE3=Volgalaulu
TTITLE4=Sun On Mun Sydämmein
TTITLE5=Nadirin Romanssi
TTITLE6=Kun Jo Saapuu Yö
TTITLE7=Elämäni On Lauluni
TTITLE8=Romanssi
TTITLE9=On Jossakin
TTITLE10=Edelweiss
TTITLE11=Novgorodin Ruusu
TTITLE12=Kodin Kynttilät
TTITLE13=Äiti Pien'
TTITLE14=Vaiennut Viulu
TTITLE15=Rakastan Sinua, Elämä
TTITLE16=Lokki
TTITLE17=Kuiskettasi Kaipaan, Mariu
TTITLE18=Anema Core
TTITLE19=Palaja Sorrentoon
EXTD=TR.
EXTT0=
EXTT1=
EXTT2=
EXTT3=
EXTT4=
EXTT5=
EXTT6=
EXTT7=
EXTT8=
EXTT9=
EXTT10=
EXTT11=
EXTT12=
EXTT13=
EXTT14=
EXTT15=
EXTT16=
EXTT17=
EXTT18=
EXTT19=
PLAYORDER=
